<?xml version="1.0" encoding="UTF-8"?>
<svg id="Layer_1" data-name="Layer 1" xmlns="http://www.w3.org/2000/svg" viewBox="0 0 1200 1200">
  <defs>
    <style>
      .cls-1 {
        fill: #f3f3e0;
      }

      .cls-2 {
        fill: #0b60b0;
      }
    </style>
  </defs>
  <rect class="cls-1" x="0" y="0" width="1200" height="1200" transform="translate(-.86 .86) rotate(-.08)"/>
  <g>
    <path class="cls-2" d="M661.92,745.17c-.02-11.26-9.17-20.38-20.44-20.35-11.26.02-20.38,9.17-20.35,20.44.02,11.26,9.17,20.38,20.44,20.35,11.25-.05,20.35-9.18,20.35-20.44Z"/>
    <path class="cls-2" d="M578.96,745.17c-.02-11.26-9.17-20.38-20.44-20.35-11.26.02-20.38,9.17-20.35,20.44.02,11.26,9.17,20.38,20.44,20.35,11.25-.05,20.35-9.18,20.35-20.44Z"/>
    <path class="cls-2" d="M600,790.88c-4.76,0-8.62,3.86-8.62,8.62v22.77c0,4.76,3.86,8.62,8.62,8.62s8.62-3.86,8.62-8.62v-22.77c0-4.76-3.86-8.62-8.62-8.62Z"/>
    <path class="cls-2" d="M998.07,793.77c-6.35-104.82-29.65-281.65-48.71-386.47-19.06-105.88-44.47-164.12-144-164.12-13.76,0-29.65,1.06-46.59,3.18-108,13.76-112.24,78.35-146.12,153.53-3.18,7.41-6.35,19.06-14.82,19.06s-11.65-11.65-14.82-19.06c-36-79.41-28.59-140.82-145.06-154.59-15.88-2.12-29.65-3.18-42.35-3.18-88.94,0-112.23,45.53-132.35,141.88-27.53,135.53-47.65,311.29-61.41,448.94-6.35,63.53,18,105.88,83.65,119.65,13.77,3.18,28.59,4.24,44.47,4.24,52.94,0,110.12-19.06,118.59-76.24,2.12-13.76,2.12-26.47,2.12-38.12,0-30.71-3.18-56.12-2.12-84.71,1.06-18,3.18-58.24,12.71-59.29,15.88-2.12,21.18,27.53,25.41,40.23,3.09,10.08,6.01,20.12,9.25,29.82l35.78-140.55c13.11,20.09,37.26,48.73,67.27,48.73h.78c.43.06.86.09,1.29.09,30.01,0,54.16-28.72,67.35-48.81l37.33,146.76c4.54-10.96,8.66-22.41,12.83-33.91,5.29-15.88,9.53-45.53,22.24-46.59,21.18-2.12,15.88,67.76,14.82,79.41-2.12,25.41-5.29,51.88-4.24,72,2.12,78.35,49.76,112.24,115.41,112.24,12.71,0,26.47-1.06,41.29-4.24,77.29-13.76,91.06-61.41,91.06-122.82,0-11.65,0-24.35-1.06-37.06Z"/>
    <rect class="cls-2" x="661.66" y="793.93" width="45.35" height="8.81" rx="4.4" ry="4.4" transform="translate(-123.67 125.45) rotate(-9.61)"/>
    <rect class="cls-2" x="660.25" y="820.45" width="45.35" height="8.81" rx="4.4" ry="4.4" transform="translate(407.81 -210.08) rotate(24.74)"/>
    <rect class="cls-2" x="482.87" y="791.88" width="45.35" height="8.81" rx="4.4" ry="4.4" transform="translate(871.05 1665.8) rotate(-170.39)"/>
    <rect class="cls-2" x="484.29" y="818.53" width="45.35" height="8.81" rx="4.4" ry="4.4" transform="translate(1311.75 1358.23) rotate(155.26)"/>
  </g>
</svg>